<svg width="59" height="59" viewBox="0 0 59 59" fill="none" xmlns="http://www.w3.org/2000/svg">
<rect width="59" height="59" fill="black"/>
<rect x="0.25" y="0.25" width="58.5" height="58.5" rx="4.28846" stroke="white" stroke-width="0.5"/>
<path d="M29.4844 24.0626V9.30322L41.6306 29.5281L41.5974 29.5822L29.4844 24.0626Z" fill="white"/>
<path d="M29.3358 9.62605V9.90932C29.3358 14.482 29.3358 19.0532 29.3358 23.6231C29.3358 23.8314 29.3108 23.9813 29.0742 24.0896C25.2787 25.8101 21.4867 27.5375 17.6981 29.2719C17.6192 29.3073 17.5382 29.3344 17.3867 29.3927L29.2673 9.60522L29.3358 9.62605Z" fill="white"/>
<path d="M29.3259 24.1189V36.8641L17.1797 29.6573L29.3259 24.1189Z" fill="white"/>
<path d="M29.4902 24.2146L41.6157 29.7426L29.4902 36.9369V24.2146Z" fill="white"/>
<path d="M41.347 32.667C37.4089 38.2283 33.4612 43.807 29.5038 49.403C29.4893 49.2822 29.4727 49.2156 29.4727 49.1468C29.4727 46.0621 29.4727 42.9773 29.4727 39.8946C29.4767 39.8232 29.496 39.7535 29.5293 39.6902C29.5626 39.627 29.6091 39.5716 29.6657 39.5281C33.5401 37.2202 37.4145 34.92 41.2889 32.6274L41.347 32.667Z" fill="white"/>
<path d="M17.6436 32.6316C21.4737 34.8992 25.301 37.1702 29.1256 39.4447C29.1822 39.4809 29.2301 39.5292 29.2659 39.586C29.3018 39.6429 29.3248 39.707 29.3331 39.7738C29.3456 42.869 29.3456 45.9649 29.3331 49.0614C29.3268 49.1142 29.3164 49.1665 29.302 49.2176L17.5938 32.6712L17.6436 32.6316Z" fill="white"/>
</svg>
