<svg width="51" height="51" viewBox="0 0 51 51" fill="none" xmlns="http://www.w3.org/2000/svg">
<rect x="0.21604" y="0.216101" width="50.5676" height="50.5676" rx="3.70696" fill="black" stroke="white" stroke-width="0.432202"/>
<path fill-rule="evenodd" clip-rule="evenodd" d="M13.8127 11.1572L7.02789 25.246C7.00208 25.2984 6.99389 25.3576 7.00455 25.4149C7.0152 25.4722 7.04412 25.5247 7.08709 25.5646L25.4112 42.9231C25.4632 42.9725 25.5325 43 25.6047 43C25.6768 43 25.7461 42.9725 25.7981 42.9231L44.1222 25.5657C44.1652 25.5258 44.1941 25.4733 44.2048 25.416C44.2154 25.3587 44.2072 25.2995 44.1814 25.2471L37.3966 11.1582C37.3747 11.1109 37.3395 11.0709 37.2952 11.0428C37.2509 11.0147 37.1993 10.9999 37.1467 11H14.0648C14.0119 10.9994 13.96 11.0139 13.9152 11.0417C13.8705 11.0696 13.8349 11.1097 13.8127 11.1572Z" fill="white"/>
<path fill-rule="evenodd" clip-rule="evenodd" d="M27.5795 26.6663C27.4485 26.6759 26.7712 26.7156 25.2604 26.7156C24.0588 26.7156 23.2057 26.6802 22.9064 26.6663C18.2627 26.466 14.7966 25.6733 14.7966 24.7243C14.7966 23.7752 18.2627 22.9837 22.9064 22.7801V25.8769C23.2101 25.8983 24.0796 25.9486 25.2812 25.9486C26.7231 25.9486 27.4452 25.8897 27.5752 25.8779V22.7823C32.209 22.9847 35.6674 23.7774 35.6674 24.7243C35.6674 25.6712 32.2101 26.4638 27.5752 26.6652L27.5795 26.6663ZM27.5795 22.462V19.6909H34.0464V15.4652H16.4395V19.6909H22.9053V22.4609C17.6499 22.6977 13.6977 23.7185 13.6977 24.9417C13.6977 26.165 17.6499 27.1847 22.9053 27.4225V36.3024H27.5784V27.4193C32.8218 27.1826 36.7675 26.1629 36.7675 24.9407C36.7675 23.7185 32.8251 22.6987 27.5784 22.4609L27.5795 22.462Z" fill="black"/>
</svg>
