<svg width="59" height="59" viewBox="0 0 59 59" fill="none" xmlns="http://www.w3.org/2000/svg">
<rect width="59" height="59" fill="black"/>
<rect x="0.25" y="0.25" width="58.5" height="58.5" rx="4.28846" stroke="white" stroke-width="0.5"/>
<path d="M7.91602 27.2042C8.39985 25.4206 8.75388 23.6013 9.39113 21.8802C12.4712 13.5567 20.2038 8.28909 29.0132 7.94426C39.7904 7.52214 49.7651 15.4681 51.1724 27.4301C52.4971 38.6936 43.9945 49.6568 32.7806 51.1194C20.9148 52.6652 10.6361 45.2632 8.31135 33.4944C8.16974 32.778 8.04878 32.0556 7.91602 31.3362V27.2042ZM9.60945 29.4605C9.55045 40.7002 18.2773 49.6063 29.497 49.7579C40.4129 49.9065 49.656 40.7893 49.7091 29.841C49.7622 18.5151 40.6873 9.50789 29.1872 9.46627C18.5575 9.42465 9.66256 18.5032 9.60945 29.4456V29.4605Z" fill="white"/>
<path d="M35.5834 29.1691C38.0527 30.5247 38.7077 31.6692 38.2032 34.0681C37.5217 37.3381 34.8428 37.6353 32.0755 37.9148V41.2471H30.0104V37.9772L28.2845 37.8523V41.3066H26.2193V37.8583H22.0005L22.3928 35.5277C22.7846 35.4822 23.1786 35.4574 23.5729 35.4534C24.4049 35.492 24.6999 35.0907 24.694 34.294C24.6763 31.4422 24.6763 28.5905 24.694 25.7387C24.694 24.6834 24.2249 24.1929 23.1776 24.2523C22.8442 24.2672 22.5079 24.2523 22.0978 24.2523V22.1417H26.1721V18.7083H28.1901V21.9158H29.9602V18.6905H31.9693V21.9604C33.7395 22.4866 35.6866 22.5222 36.6897 24.3385C37.501 25.7862 37.1322 27.4599 35.5834 29.1691ZM28.311 35.5872C29.8215 35.4266 31.2318 35.4772 32.4856 35.064C33.1966 34.8291 33.9607 33.9135 34.1584 33.1644C34.4387 32.0794 33.5477 31.2916 32.5299 31.0835C31.1757 30.8101 29.7773 30.7863 28.311 30.6317V35.5872ZM28.311 28.8124C29.6032 28.64 30.7804 28.6757 31.7894 28.2803C32.406 28.0395 33.1347 27.1388 33.1317 26.5354C33.1288 25.9319 32.403 25.0104 31.7894 24.7874C30.7479 24.404 29.5442 24.4575 28.311 24.3177V28.8124Z" fill="white"/>
<path d="M15.9938 17.3171L16.8788 18.1286C16.6133 18.5032 16.3773 18.854 16.1265 19.1929C11.3324 25.59 11.3707 33.9314 16.2858 40.2305C16.8995 41.0153 16.7343 41.4195 16.0056 41.8327C10.3854 36.907 8.76273 24.8261 15.9938 17.3171Z" fill="white"/>
<path d="M41.0856 42.3946L41.9942 43.2091C35.6247 49.5022 24.4492 49.9957 17.3981 43.3756C17.7964 42.8553 18.0235 42.136 18.9116 42.894C24.8533 47.9802 34.359 48.0456 40.5693 42.7454C40.6814 42.6621 40.8112 42.5789 41.0856 42.3946Z" fill="white"/>
<path d="M42.1152 15.908L41.0767 16.7999C33.5064 11.0893 25.9538 11.125 18.2212 16.7582L17.0411 15.7773C18.9529 14.6417 20.5578 13.4259 22.3515 12.6649C29.4292 9.66544 35.9079 10.9704 42.1152 15.908Z" fill="white"/>
<path d="M42.3778 18.197L43.2628 17.2309C49.5911 23.643 49.6029 35.5545 43.3307 41.8595C42.5135 41.4849 42.2981 41.0688 42.9206 40.2186C48.1012 33.1496 47.9331 25.4652 42.3778 18.197Z" fill="white"/>
</svg>
