<svg width="44" height="44" viewBox="0 0 44 44" fill="none" xmlns="http://www.w3.org/2000/svg">
<path d="M0 19.276C0.483839 17.4924 0.837868 15.6731 1.47512 13.9519C4.55517 5.62845 12.2877 0.360871 21.0972 0.0160406C31.8744 -0.406079 41.8491 7.53988 43.2564 19.5019C44.581 30.7654 36.0785 41.7286 24.8646 43.1912C12.9987 44.7369 2.72012 37.335 0.395331 25.5662C0.253719 24.8497 0.132761 24.1274 0 23.408V19.276ZM1.69344 21.5323C1.63443 32.7719 10.3612 41.6781 21.581 41.8297C32.4969 41.9783 41.74 32.8611 41.7931 21.9128C41.8462 10.5869 32.7712 1.57967 21.2712 1.53805C10.6415 1.49643 1.74654 10.575 1.69344 21.5174V21.5323Z" fill="white"/>
<path d="M27.6673 21.2409C30.1367 22.5965 30.7916 23.741 30.2872 26.1399C29.6057 29.4098 26.9268 29.7071 24.1595 29.9865V33.3189H22.0943V30.049L20.3684 29.9241V33.3784H18.3033V29.9301H14.0844L14.4768 27.5995C14.8686 27.554 15.2625 27.5292 15.6569 27.5252C16.4889 27.5638 16.7839 27.1625 16.778 26.3658C16.7603 23.514 16.7603 20.6622 16.778 17.8105C16.778 16.7552 16.3089 16.2647 15.2616 16.3241C14.9282 16.339 14.5919 16.3241 14.1818 16.3241V14.2135H18.2561V10.7801H20.274V13.9876H22.0442V10.7622H24.0533V14.0322C25.8234 14.5584 27.7706 14.594 28.7737 16.4103C29.585 17.858 29.2162 19.5316 27.6673 21.2409ZM20.395 27.6589C21.9055 27.4984 23.3157 27.5489 24.5696 27.1357C25.2806 26.9009 26.0447 25.9853 26.2424 25.2362C26.5226 24.1512 25.6317 23.3634 24.6138 23.1553C23.2597 22.8818 21.8613 22.8581 20.395 22.7035V27.6589ZM20.395 20.8842C21.6872 20.7118 22.8644 20.7475 23.8733 20.3521C24.4899 20.1113 25.2186 19.2106 25.2157 18.6071C25.2127 18.0037 24.487 17.0822 23.8733 16.8592C22.8319 16.4757 21.6282 16.5292 20.395 16.3895V20.8842Z" fill="white"/>
<path d="M8.07776 9.38887L8.96283 10.2004C8.69731 10.575 8.46129 10.9257 8.21052 11.2646C3.41638 17.6618 3.45473 26.0032 8.36983 32.3022C8.98348 33.087 8.81826 33.4913 8.08956 33.9045C2.46935 28.9788 0.846718 16.8978 8.07776 9.38887Z" fill="white"/>
<path d="M33.1695 34.4663L34.0782 35.2809C27.7086 41.574 16.5331 42.0675 9.48207 35.4473C9.88035 34.9271 10.1075 34.2077 10.9955 34.9658C16.9373 40.052 26.443 40.1174 32.6532 34.8171C32.7654 34.7339 32.8952 34.6507 33.1695 34.4663Z" fill="white"/>
<path d="M34.1992 7.97983L33.1607 8.87163C25.5904 3.16112 18.0378 3.19679 10.3052 8.83001L9.12509 7.84903C11.0368 6.71347 12.6418 5.49765 14.4355 4.73665C21.5131 1.73722 27.9919 3.04222 34.1992 7.97983Z" fill="white"/>
<path d="M34.4617 10.2688L35.3468 9.30267C41.6751 15.7147 41.6869 27.6262 35.4147 33.9313C34.5975 33.5567 34.3821 33.1406 35.0046 32.2904C40.1852 25.2213 40.0171 17.537 34.4617 10.2688Z" fill="white"/>
</svg>
