<svg width="12" height="16" viewBox="0 0 12 16" fill="none" xmlns="http://www.w3.org/2000/svg">
<mask id="path-1-inside-1_3461_959" fill="white">
<path d="M7.46414 0.0467342C7.48422 0.0485604 7.50451 0.0493719 7.52501 0.0522127C7.58548 0.0603289 7.64493 0.0767645 7.70093 0.10091C7.90951 0.190394 8.06271 0.382748 8.1037 0.605946C8.11465 0.666414 8.11729 0.727692 8.11181 0.788559C8.10999 0.809053 8.10633 0.828938 8.1037 0.849028C8.08361 0.936278 8.06007 1.0221 8.03958 1.10956C7.9087 1.69959 7.84012 2.30671 7.86285 2.91175C7.87969 3.36403 7.94929 3.82077 8.11242 4.24443C8.18141 4.42359 8.27069 4.59444 8.36748 4.75981C8.50748 5.00025 8.66839 5.22751 8.84836 5.43976C9.22962 5.8898 9.69142 6.25829 10.1301 6.64927C10.2034 6.71521 10.2756 6.78157 10.3474 6.84873C10.4988 6.99238 10.6461 7.1405 10.7851 7.29634C11.1019 7.65305 11.3804 8.05035 11.5819 8.48435C11.836 9.03241 11.9664 9.63241 11.9942 10.2346C12.0133 10.6469 11.9847 11.0614 11.9129 11.4676C11.8534 11.8053 11.7637 12.1384 11.6388 12.458C11.5757 12.6203 11.5028 12.7788 11.4174 12.9312C11.3356 13.0775 11.2419 13.2175 11.1455 13.3548C10.9996 13.5616 10.8413 13.7594 10.6715 13.9465C10.3302 14.3233 9.94205 14.6579 9.51839 14.9391C8.97703 15.2987 8.37807 15.5704 7.75027 15.7404C6.71893 16.02 5.61325 16.0231 4.57743 15.764C4.04194 15.6294 3.52396 15.4235 3.04389 15.15C2.42623 14.7982 1.87313 14.3359 1.4168 13.7905C0.958235 13.2419 0.599515 12.6106 0.360469 11.9366C0.128139 11.2826 0.0090373 10.5907 0.000513302 9.89716C-0.00942929 9.08267 0.123677 8.24409 0.521355 7.52316C0.730959 7.14312 1.01401 6.80104 1.36441 6.54272C1.45531 6.47596 1.55128 6.41448 1.65111 6.36173C1.70062 6.33535 1.75195 6.30938 1.80471 6.2899C1.82378 6.28259 1.84245 6.27529 1.86193 6.2694C1.94005 6.24526 2.02182 6.23572 2.10318 6.24079C2.35093 6.25662 2.57534 6.41042 2.67945 6.63525C2.71354 6.70931 2.73444 6.78925 2.74032 6.87061C2.74215 6.8907 2.74174 6.91099 2.74215 6.93149C2.74134 7.00555 2.74073 7.08002 2.74134 7.15428C2.74641 7.57145 2.77806 7.9925 2.88499 8.39688C2.95317 8.65599 3.0532 8.91267 3.21492 9.12815C3.32165 9.26998 3.45678 9.38868 3.61525 9.46944C3.71427 9.51996 3.82059 9.55588 3.92935 9.57941C4.02066 9.5995 4.1144 9.61391 4.20835 9.61127C4.40111 9.6068 4.59103 9.5368 4.74238 9.4177C4.8065 9.36717 4.86413 9.30772 4.91242 9.24178C4.9743 9.15676 5.02056 9.06078 5.0506 8.95994C5.15023 8.62595 5.07251 8.26316 4.94205 7.94864C4.9179 7.89041 4.89152 7.83278 4.86332 7.77638C4.79555 7.64002 4.71418 7.51138 4.64114 7.37787C4.6176 7.33282 4.59386 7.28778 4.57114 7.24293C4.41429 6.92518 4.29072 6.59301 4.21301 6.24706C4.15985 6.01169 4.12718 5.77206 4.11521 5.53164C4.10608 5.35754 4.10892 5.18305 4.12069 5.00934C4.19941 3.89135 4.70017 2.84494 5.35191 1.94953C5.45824 1.80364 5.56862 1.6614 5.68326 1.52221C5.82469 1.35035 5.97179 1.18356 6.12417 1.02144C6.39647 0.731893 6.68501 0.456549 6.99361 0.20514L7.00863 0.192966C7.05225 0.16111 7.06281 0.151573 7.11048 0.126208C7.18231 0.0876553 7.26144 0.0620877 7.3418 0.0511328C7.36229 0.048495 7.38278 0.0474805 7.40267 0.0456543C7.42316 0.0456543 7.44366 0.0460601 7.46395 0.0460601L7.46414 0.0467342ZM6.48956 2.70523C6.40677 2.81744 6.32643 2.93167 6.25054 3.04834C5.82789 3.69743 5.50021 4.44148 5.4746 5.22552C5.47135 5.32515 5.47379 5.42497 5.48048 5.5246C5.49043 5.66684 5.51133 5.80826 5.54278 5.94725C5.59634 6.18506 5.68096 6.41536 5.79012 6.63307C5.84693 6.74589 5.91186 6.85343 5.97456 6.96259C6.00317 7.01433 6.03097 7.06567 6.05816 7.11802C6.12593 7.25254 6.18903 7.3889 6.2426 7.52972C6.35258 7.81825 6.42704 8.12141 6.45078 8.42959C6.47533 8.75364 6.44307 9.08175 6.34446 9.39217C6.26573 9.6385 6.14581 9.87204 5.98958 10.0784C5.85687 10.2539 5.6978 10.4097 5.52005 10.5392C5.19418 10.777 4.80603 10.9255 4.40466 10.9647C4.18613 10.9866 3.96699 10.9728 3.7511 10.9343C3.57335 10.9028 3.39886 10.8551 3.23062 10.7898C3.06647 10.7261 2.90922 10.6453 2.76211 10.5489C2.36766 10.2902 2.06024 9.92031 1.84863 9.50134C1.71187 9.23127 1.61508 8.94455 1.54264 8.65138L1.53209 8.60856C1.42252 8.95208 1.37484 9.31162 1.3649 9.6716C1.35313 10.1085 1.39533 10.5465 1.49536 10.9714C1.61954 11.4985 1.83219 12.0046 2.12622 12.4595C2.49572 13.0313 2.99203 13.5189 3.57073 13.8772C3.95017 14.1121 4.36288 14.2917 4.79282 14.4104C5.16779 14.5145 5.55494 14.5722 5.94369 14.5864C6.43188 14.604 6.92169 14.5523 7.39365 14.4246C7.88002 14.2928 8.34407 14.0819 8.76346 13.8033C9.11388 13.5706 9.43245 13.2912 9.71025 12.9757C9.84071 12.8271 9.96165 12.6707 10.073 12.508C10.1272 12.4284 10.1808 12.3481 10.2277 12.2643C10.3064 12.1243 10.3677 11.9747 10.419 11.823C10.4849 11.6298 10.5345 11.4311 10.57 11.2303C10.5945 11.0895 10.6128 10.9476 10.6235 10.8054C10.6704 10.1918 10.5894 9.55588 10.3167 8.99915C10.2595 8.88227 10.1936 8.77006 10.1213 8.66232C9.97768 8.44825 9.81536 8.2492 9.6372 8.06335C9.31174 7.72389 8.94448 7.42746 8.59407 7.11517C8.51899 7.0478 8.44554 6.98023 8.37189 6.91145C8.17466 6.72376 7.98413 6.52917 7.80819 6.321C7.55456 6.02233 7.33014 5.6997 7.13858 5.35781C7.06959 5.23464 7.00365 5.11006 6.9446 4.98243C6.88515 4.85297 6.83178 4.72027 6.78552 4.58514C6.57592 3.97844 6.49821 3.33708 6.49517 2.6975C6.49334 2.69973 6.49151 2.70196 6.48969 2.7048L6.48956 2.70523Z"/>
</mask>
<path d="M7.46414 0.0467342C7.48422 0.0485604 7.50451 0.0493719 7.52501 0.0522127C7.58548 0.0603289 7.64493 0.0767645 7.70093 0.10091C7.90951 0.190394 8.06271 0.382748 8.1037 0.605946C8.11465 0.666414 8.11729 0.727692 8.11181 0.788559C8.10999 0.809053 8.10633 0.828938 8.1037 0.849028C8.08361 0.936278 8.06007 1.0221 8.03958 1.10956C7.9087 1.69959 7.84012 2.30671 7.86285 2.91175C7.87969 3.36403 7.94929 3.82077 8.11242 4.24443C8.18141 4.42359 8.27069 4.59444 8.36748 4.75981C8.50748 5.00025 8.66839 5.22751 8.84836 5.43976C9.22962 5.8898 9.69142 6.25829 10.1301 6.64927C10.2034 6.71521 10.2756 6.78157 10.3474 6.84873C10.4988 6.99238 10.6461 7.1405 10.7851 7.29634C11.1019 7.65305 11.3804 8.05035 11.5819 8.48435C11.836 9.03241 11.9664 9.63241 11.9942 10.2346C12.0133 10.6469 11.9847 11.0614 11.9129 11.4676C11.8534 11.8053 11.7637 12.1384 11.6388 12.458C11.5757 12.6203 11.5028 12.7788 11.4174 12.9312C11.3356 13.0775 11.2419 13.2175 11.1455 13.3548C10.9996 13.5616 10.8413 13.7594 10.6715 13.9465C10.3302 14.3233 9.94205 14.6579 9.51839 14.9391C8.97703 15.2987 8.37807 15.5704 7.75027 15.7404C6.71893 16.02 5.61325 16.0231 4.57743 15.764C4.04194 15.6294 3.52396 15.4235 3.04389 15.15C2.42623 14.7982 1.87313 14.3359 1.4168 13.7905C0.958235 13.2419 0.599515 12.6106 0.360469 11.9366C0.128139 11.2826 0.0090373 10.5907 0.000513302 9.89716C-0.00942929 9.08267 0.123677 8.24409 0.521355 7.52316C0.730959 7.14312 1.01401 6.80104 1.36441 6.54272C1.45531 6.47596 1.55128 6.41448 1.65111 6.36173C1.70062 6.33535 1.75195 6.30938 1.80471 6.2899C1.82378 6.28259 1.84245 6.27529 1.86193 6.2694C1.94005 6.24526 2.02182 6.23572 2.10318 6.24079C2.35093 6.25662 2.57534 6.41042 2.67945 6.63525C2.71354 6.70931 2.73444 6.78925 2.74032 6.87061C2.74215 6.8907 2.74174 6.91099 2.74215 6.93149C2.74134 7.00555 2.74073 7.08002 2.74134 7.15428C2.74641 7.57145 2.77806 7.9925 2.88499 8.39688C2.95317 8.65599 3.0532 8.91267 3.21492 9.12815C3.32165 9.26998 3.45678 9.38868 3.61525 9.46944C3.71427 9.51996 3.82059 9.55588 3.92935 9.57941C4.02066 9.5995 4.1144 9.61391 4.20835 9.61127C4.40111 9.6068 4.59103 9.5368 4.74238 9.4177C4.8065 9.36717 4.86413 9.30772 4.91242 9.24178C4.9743 9.15676 5.02056 9.06078 5.0506 8.95994C5.15023 8.62595 5.07251 8.26316 4.94205 7.94864C4.9179 7.89041 4.89152 7.83278 4.86332 7.77638C4.79555 7.64002 4.71418 7.51138 4.64114 7.37787C4.6176 7.33282 4.59386 7.28778 4.57114 7.24293C4.41429 6.92518 4.29072 6.59301 4.21301 6.24706C4.15985 6.01169 4.12718 5.77206 4.11521 5.53164C4.10608 5.35754 4.10892 5.18305 4.12069 5.00934C4.19941 3.89135 4.70017 2.84494 5.35191 1.94953C5.45824 1.80364 5.56862 1.6614 5.68326 1.52221C5.82469 1.35035 5.97179 1.18356 6.12417 1.02144C6.39647 0.731893 6.68501 0.456549 6.99361 0.20514L7.00863 0.192966C7.05225 0.16111 7.06281 0.151573 7.11048 0.126208C7.18231 0.0876553 7.26144 0.0620877 7.3418 0.0511328C7.36229 0.048495 7.38278 0.0474805 7.40267 0.0456543C7.42316 0.0456543 7.44366 0.0460601 7.46395 0.0460601L7.46414 0.0467342ZM6.48956 2.70523C6.40677 2.81744 6.32643 2.93167 6.25054 3.04834C5.82789 3.69743 5.50021 4.44148 5.4746 5.22552C5.47135 5.32515 5.47379 5.42497 5.48048 5.5246C5.49043 5.66684 5.51133 5.80826 5.54278 5.94725C5.59634 6.18506 5.68096 6.41536 5.79012 6.63307C5.84693 6.74589 5.91186 6.85343 5.97456 6.96259C6.00317 7.01433 6.03097 7.06567 6.05816 7.11802C6.12593 7.25254 6.18903 7.3889 6.2426 7.52972C6.35258 7.81825 6.42704 8.12141 6.45078 8.42959C6.47533 8.75364 6.44307 9.08175 6.34446 9.39217C6.26573 9.6385 6.14581 9.87204 5.98958 10.0784C5.85687 10.2539 5.6978 10.4097 5.52005 10.5392C5.19418 10.777 4.80603 10.9255 4.40466 10.9647C4.18613 10.9866 3.96699 10.9728 3.7511 10.9343C3.57335 10.9028 3.39886 10.8551 3.23062 10.7898C3.06647 10.7261 2.90922 10.6453 2.76211 10.5489C2.36766 10.2902 2.06024 9.92031 1.84863 9.50134C1.71187 9.23127 1.61508 8.94455 1.54264 8.65138L1.53209 8.60856C1.42252 8.95208 1.37484 9.31162 1.3649 9.6716C1.35313 10.1085 1.39533 10.5465 1.49536 10.9714C1.61954 11.4985 1.83219 12.0046 2.12622 12.4595C2.49572 13.0313 2.99203 13.5189 3.57073 13.8772C3.95017 14.1121 4.36288 14.2917 4.79282 14.4104C5.16779 14.5145 5.55494 14.5722 5.94369 14.5864C6.43188 14.604 6.92169 14.5523 7.39365 14.4246C7.88002 14.2928 8.34407 14.0819 8.76346 13.8033C9.11388 13.5706 9.43245 13.2912 9.71025 12.9757C9.84071 12.8271 9.96165 12.6707 10.073 12.508C10.1272 12.4284 10.1808 12.3481 10.2277 12.2643C10.3064 12.1243 10.3677 11.9747 10.419 11.823C10.4849 11.6298 10.5345 11.4311 10.57 11.2303C10.5945 11.0895 10.6128 10.9476 10.6235 10.8054C10.6704 10.1918 10.5894 9.55588 10.3167 8.99915C10.2595 8.88227 10.1936 8.77006 10.1213 8.66232C9.97768 8.44825 9.81536 8.2492 9.6372 8.06335C9.31174 7.72389 8.94448 7.42746 8.59407 7.11517C8.51899 7.0478 8.44554 6.98023 8.37189 6.91145C8.17466 6.72376 7.98413 6.52917 7.80819 6.321C7.55456 6.02233 7.33014 5.6997 7.13858 5.35781C7.06959 5.23464 7.00365 5.11006 6.9446 4.98243C6.88515 4.85297 6.83178 4.72027 6.78552 4.58514C6.57592 3.97844 6.49821 3.33708 6.49517 2.6975C6.49334 2.69973 6.49151 2.70196 6.48969 2.7048L6.48956 2.70523Z" fill="#BEE719" stroke="black" stroke-width="2" mask="url(#path-1-inside-1_3461_959)"/>
</svg>
