<svg width="12" height="12" viewBox="0 0 12 12" fill="none" xmlns="http://www.w3.org/2000/svg">
<path fill-rule="evenodd" clip-rule="evenodd" d="M6 1C3.23858 1 1 3.23858 1 6C1 8.76142 3.23858 11 6 11C8.76142 11 11 8.76142 11 6C11 3.23858 8.76142 1 6 1ZM2 6C2 8.20914 3.79086 10 6 10C8.20914 10 10 8.20914 10 6C10 3.79086 8.20914 2 6 2C3.79086 2 2 3.79086 2 6Z" fill="white"/>
<path d="M5.59453 8.33955C5.59453 8.11287 5.77829 7.9291 6.00498 7.9291C6.23166 7.9291 6.41542 8.11287 6.41542 8.33955C6.41542 8.56624 6.23166 8.75 6.00498 8.75C5.77829 8.75 5.59453 8.56624 5.59453 8.33955ZM6.14179 3.25C7.6194 3.3102 8.2597 4.79876 7.38955 5.9097C7.1597 6.18333 6.79304 6.36393 6.60697 6.59925C6.51203 6.71589 6.46415 6.84194 6.44 6.97273C6.39884 7.19565 6.23166 7.38184 6.00498 7.38184C5.77829 7.38184 5.59015 7.19791 5.60028 6.97146C5.61303 6.68623 5.65406 6.44306 5.78607 6.25448C5.96667 5.98085 6.33333 5.81667 6.56319 5.63607C7.23632 5.01766 7.0612 4.14751 6.14179 4.07637C5.83272 4.07637 5.55998 4.2503 5.42015 4.50877C5.31228 4.70814 5.13713 4.90274 4.91045 4.90274C4.68376 4.90274 4.49478 4.71617 4.55013 4.49634C4.73065 3.77943 5.3774 3.25 6.14179 3.25Z" fill="white"/>
</svg>
