<svg width="197" height="21" viewBox="0 0 197 21" fill="none" xmlns="http://www.w3.org/2000/svg">
<path d="M6.98386 4.08685C12.5422 -1.36228 21.552 -1.36228 27.1175 4.08685L27.7862 4.7419C28.0667 5.01544 28.0667 5.45454 27.7862 5.72808L25.4996 7.97396C25.363 8.11072 25.1329 8.11072 24.9963 7.97396L24.0759 7.07416C20.2002 3.27344 13.9084 3.27344 10.0327 7.07416L9.04756 8.03874C8.91093 8.17551 8.68084 8.17551 8.54421 8.03874L6.25042 5.79286C5.96998 5.51932 5.96998 5.08022 6.25042 4.80669L6.98386 4.08685ZM31.8489 8.72258L33.8838 10.7165C34.1643 10.9901 34.1643 11.4292 33.8838 11.7027L24.7015 20.7078C24.421 20.9813 23.9752 20.9813 23.6948 20.7078L17.1729 14.3157C17.101 14.2509 16.9932 14.2509 16.9212 14.3157L10.4066 20.7078C10.1261 20.9813 9.68033 20.9813 9.39989 20.7078L0.210325 11.7099C-0.0701082 11.4364 -0.0701082 10.9973 0.210325 10.7237L2.24526 8.72978C2.52569 8.45624 2.97151 8.45624 3.25194 8.72978L9.77381 15.1219C9.84571 15.1867 9.95357 15.1867 10.0255 15.1219L16.5401 8.72978C16.8206 8.45624 17.2664 8.45624 17.5468 8.72978L24.0687 15.1219C24.1406 15.1867 24.2485 15.1867 24.3204 15.1219L30.8422 8.72978C31.1155 8.44905 31.5685 8.44905 31.8489 8.72258Z" fill="white"/>
<path d="M46.4861 18L42.6061 4.8H44.8661L47.8261 16.14L50.7061 4.8H52.9061L55.8061 16.16L58.7461 4.8H60.9261L57.0661 18H54.5461L52.4461 10.08L51.7861 7.04H51.7661L51.1061 10.08L49.0261 18H46.4861ZM67.9189 11.58C67.9189 10.9133 67.7322 10.4 67.3589 10.04C66.9989 9.66667 66.4989 9.48 65.8589 9.48C65.2589 9.48 64.7456 9.62 64.3189 9.9C63.8922 10.18 63.5789 10.6333 63.3789 11.26L61.5789 10.5C61.8322 9.68667 62.3256 9.03333 63.0589 8.54C63.8056 8.04667 64.7656 7.8 65.9389 7.8C66.7389 7.8 67.4456 7.93333 68.0589 8.2C68.6722 8.45333 69.1522 8.84 69.4989 9.36C69.8589 9.88 70.0389 10.5467 70.0389 11.36V15.82C70.0389 16.3133 70.2856 16.56 70.7789 16.56C71.0189 16.56 71.2522 16.5267 71.4789 16.46L71.3589 17.94C71.0522 18.0867 70.6656 18.16 70.1989 18.16C69.7722 18.16 69.3856 18.0867 69.0389 17.94C68.7056 17.78 68.4389 17.5467 68.2389 17.24C68.0522 16.92 67.9589 16.5267 67.9589 16.06V15.92L68.3989 15.9C68.2789 16.42 68.0322 16.8533 67.6589 17.2C67.2856 17.5333 66.8522 17.7867 66.3589 17.96C65.8656 18.12 65.3656 18.2 64.8589 18.2C64.2322 18.2 63.6656 18.1 63.1589 17.9C62.6656 17.7 62.2722 17.4 61.9789 17C61.6989 16.5867 61.5589 16.08 61.5589 15.48C61.5589 14.7333 61.7989 14.12 62.2789 13.64C62.7722 13.16 63.4656 12.8333 64.3589 12.66L68.2389 11.9L68.2189 13.4L65.3989 13.98C64.8389 14.0867 64.4189 14.24 64.1389 14.44C63.8589 14.64 63.7189 14.9333 63.7189 15.32C63.7189 15.6933 63.8589 15.9933 64.1389 16.22C64.4322 16.4333 64.8189 16.54 65.2989 16.54C65.6322 16.54 65.9522 16.5 66.2589 16.42C66.5789 16.34 66.8656 16.2133 67.1189 16.04C67.3722 15.8533 67.5656 15.62 67.6989 15.34C67.8456 15.0467 67.9189 14.7 67.9189 14.3V11.58ZM75.4252 3.5V15.2C75.4252 15.6933 75.5118 16.0333 75.6852 16.22C75.8585 16.4067 76.1452 16.5 76.5452 16.5C76.7852 16.5 76.9852 16.4867 77.1452 16.46C77.3185 16.42 77.5318 16.3533 77.7852 16.26L77.5452 17.86C77.3185 17.9667 77.0585 18.0467 76.7652 18.1C76.4718 18.1667 76.1785 18.2 75.8852 18.2C74.9918 18.2 74.3318 17.9733 73.9052 17.52C73.4918 17.0533 73.2852 16.34 73.2852 15.38V3.5H75.4252ZM81.4556 3.5V15.2C81.4556 15.6933 81.5423 16.0333 81.7156 16.22C81.889 16.4067 82.1756 16.5 82.5756 16.5C82.8156 16.5 83.0156 16.4867 83.1756 16.46C83.349 16.42 83.5623 16.3533 83.8156 16.26L83.5756 17.86C83.349 17.9667 83.089 18.0467 82.7956 18.1C82.5023 18.1667 82.209 18.2 81.9156 18.2C81.0223 18.2 80.3623 17.9733 79.9356 17.52C79.5223 17.0533 79.3156 16.34 79.3156 15.38V3.5H81.4556ZM89.8061 18.2C88.8061 18.2 87.9261 17.9933 87.1661 17.58C86.4061 17.1667 85.8128 16.5733 85.3861 15.8C84.9728 15.0133 84.7661 14.08 84.7661 13C84.7661 11.92 84.9728 10.9933 85.3861 10.22C85.8128 9.43333 86.3994 8.83333 87.1461 8.42C87.8928 8.00667 88.7394 7.8 89.6861 7.8C90.6594 7.8 91.4861 8 92.1661 8.4C92.8461 8.8 93.3661 9.34667 93.7261 10.04C94.0861 10.7333 94.2661 11.52 94.2661 12.4C94.2661 12.64 94.2594 12.8667 94.2461 13.08C94.2328 13.2933 94.2128 13.48 94.1861 13.64H86.1461V12H93.2461L92.1861 12.32C92.1861 11.4133 91.9594 10.72 91.5061 10.24C91.0528 9.74667 90.4328 9.5 89.6461 9.5C89.0728 9.5 88.5728 9.63333 88.1461 9.9C87.7194 10.1667 87.3928 10.5667 87.1661 11.1C86.9394 11.62 86.8261 12.26 86.8261 13.02C86.8261 13.7667 86.9461 14.4 87.1861 14.92C87.4261 15.44 87.7661 15.8333 88.2061 16.1C88.6461 16.3667 89.1661 16.5 89.7661 16.5C90.4328 16.5 90.9728 16.3733 91.3861 16.12C91.7994 15.8667 92.1261 15.5133 92.3661 15.06L94.0661 15.86C93.8261 16.34 93.4994 16.76 93.0861 17.12C92.6861 17.4667 92.2061 17.7333 91.6461 17.92C91.0861 18.1067 90.4728 18.2 89.8061 18.2ZM99.4542 5.06V15C99.4542 15.4933 99.5809 15.8533 99.8342 16.08C100.101 16.3067 100.454 16.42 100.894 16.42C101.254 16.42 101.568 16.3667 101.834 16.26C102.101 16.14 102.348 15.98 102.574 15.78L103.054 17.34C102.748 17.6067 102.368 17.82 101.914 17.98C101.474 18.1267 100.981 18.2 100.434 18.2C99.8609 18.2 99.3342 18.1067 98.8542 17.92C98.3742 17.7333 98.0009 17.4333 97.7342 17.02C97.4676 16.5933 97.3276 16.04 97.3142 15.36V5.66L99.4542 5.06ZM102.894 8V9.68H95.3942V8H102.894ZM122.355 14.5C122.088 15.3 121.688 15.98 121.155 16.54C120.621 17.0867 119.995 17.5 119.275 17.78C118.555 18.06 117.761 18.2 116.895 18.2C115.628 18.2 114.528 17.9267 113.595 17.38C112.661 16.8333 111.941 16.0533 111.435 15.04C110.928 14.0267 110.675 12.8133 110.675 11.4C110.675 9.98667 110.928 8.77333 111.435 7.76C111.941 6.74667 112.661 5.96667 113.595 5.42C114.528 4.87333 115.621 4.6 116.875 4.6C117.741 4.6 118.521 4.72 119.215 4.96C119.921 5.2 120.521 5.56 121.015 6.04C121.508 6.52 121.888 7.12 122.155 7.84L120.135 8.74C119.868 7.95333 119.481 7.38 118.975 7.02C118.468 6.64667 117.808 6.46 116.995 6.46C116.181 6.46 115.468 6.65333 114.855 7.04C114.241 7.42667 113.761 7.98667 113.415 8.72C113.081 9.45333 112.915 10.3467 112.915 11.4C112.915 12.44 113.075 13.3333 113.395 14.08C113.715 14.8133 114.175 15.3733 114.775 15.76C115.375 16.1467 116.095 16.34 116.935 16.34C117.748 16.34 118.448 16.1333 119.035 15.72C119.635 15.2933 120.061 14.66 120.315 13.82L122.355 14.5ZM128.927 7.8C129.9 7.8 130.76 8.00667 131.507 8.42C132.253 8.83333 132.833 9.43333 133.247 10.22C133.673 10.9933 133.887 11.92 133.887 13C133.887 14.08 133.673 15.0133 133.247 15.8C132.833 16.5733 132.253 17.1667 131.507 17.58C130.76 17.9933 129.9 18.2 128.927 18.2C127.953 18.2 127.093 17.9933 126.347 17.58C125.6 17.1667 125.013 16.5733 124.587 15.8C124.16 15.0133 123.947 14.08 123.947 13C123.947 11.92 124.16 10.9933 124.587 10.22C125.013 9.43333 125.6 8.83333 126.347 8.42C127.093 8.00667 127.953 7.8 128.927 7.8ZM128.927 9.48C128.327 9.48 127.813 9.62 127.387 9.9C126.973 10.1667 126.653 10.56 126.427 11.08C126.2 11.6 126.087 12.24 126.087 13C126.087 13.7467 126.2 14.3867 126.427 14.92C126.653 15.44 126.973 15.84 127.387 16.12C127.813 16.3867 128.327 16.52 128.927 16.52C129.527 16.52 130.033 16.3867 130.447 16.12C130.86 15.84 131.18 15.44 131.407 14.92C131.633 14.3867 131.747 13.7467 131.747 13C131.747 12.24 131.633 11.6 131.407 11.08C131.18 10.56 130.86 10.1667 130.447 9.9C130.033 9.62 129.527 9.48 128.927 9.48ZM136.379 18V8H138.279L138.419 10.6L138.139 10.32C138.325 9.74667 138.592 9.27333 138.939 8.9C139.299 8.51333 139.719 8.23333 140.199 8.06C140.692 7.88667 141.212 7.8 141.759 7.8C142.465 7.8 143.099 7.94 143.659 8.22C144.232 8.48667 144.685 8.89333 145.019 9.44C145.352 9.98667 145.519 10.68 145.519 11.52V18H143.379V12.18C143.379 11.1933 143.172 10.5133 142.759 10.14C142.359 9.75333 141.852 9.56 141.239 9.56C140.799 9.56 140.372 9.66667 139.959 9.88C139.545 10.08 139.199 10.4067 138.919 10.86C138.652 11.3133 138.519 11.92 138.519 12.68V18H136.379ZM148.562 18V8H150.462L150.602 10.6L150.322 10.32C150.508 9.74667 150.775 9.27333 151.122 8.9C151.482 8.51333 151.902 8.23333 152.382 8.06C152.875 7.88667 153.395 7.8 153.942 7.8C154.648 7.8 155.282 7.94 155.842 8.22C156.415 8.48667 156.868 8.89333 157.202 9.44C157.535 9.98667 157.702 10.68 157.702 11.52V18H155.562V12.18C155.562 11.1933 155.355 10.5133 154.942 10.14C154.542 9.75333 154.035 9.56 153.422 9.56C152.982 9.56 152.555 9.66667 152.142 9.88C151.728 10.08 151.382 10.4067 151.102 10.86C150.835 11.3133 150.702 11.92 150.702 12.68V18H148.562ZM165.144 18.2C164.144 18.2 163.264 17.9933 162.504 17.58C161.744 17.1667 161.151 16.5733 160.724 15.8C160.311 15.0133 160.104 14.08 160.104 13C160.104 11.92 160.311 10.9933 160.724 10.22C161.151 9.43333 161.738 8.83333 162.484 8.42C163.231 8.00667 164.078 7.8 165.024 7.8C165.998 7.8 166.824 8 167.504 8.4C168.184 8.8 168.704 9.34667 169.064 10.04C169.424 10.7333 169.604 11.52 169.604 12.4C169.604 12.64 169.598 12.8667 169.584 13.08C169.571 13.2933 169.551 13.48 169.524 13.64H161.484V12H168.584L167.524 12.32C167.524 11.4133 167.298 10.72 166.844 10.24C166.391 9.74667 165.771 9.5 164.984 9.5C164.411 9.5 163.911 9.63333 163.484 9.9C163.058 10.1667 162.731 10.5667 162.504 11.1C162.278 11.62 162.164 12.26 162.164 13.02C162.164 13.7667 162.284 14.4 162.524 14.92C162.764 15.44 163.104 15.8333 163.544 16.1C163.984 16.3667 164.504 16.5 165.104 16.5C165.771 16.5 166.311 16.3733 166.724 16.12C167.138 15.8667 167.464 15.5133 167.704 15.06L169.404 15.86C169.164 16.34 168.838 16.76 168.424 17.12C168.024 17.4667 167.544 17.7333 166.984 17.92C166.424 18.1067 165.811 18.2 165.144 18.2ZM176.427 7.8C177.227 7.8 177.907 7.92 178.467 8.16C179.04 8.38667 179.52 8.71333 179.907 9.14C180.294 9.56667 180.587 10.0533 180.787 10.6L178.767 11.4C178.594 10.7867 178.314 10.32 177.927 10C177.554 9.66667 177.06 9.5 176.447 9.5C175.847 9.5 175.334 9.64 174.907 9.92C174.48 10.1867 174.154 10.58 173.927 11.1C173.714 11.62 173.607 12.26 173.607 13.02C173.607 13.7667 173.72 14.4 173.947 14.92C174.174 15.44 174.5 15.8333 174.927 16.1C175.354 16.3667 175.86 16.5 176.447 16.5C176.9 16.5 177.294 16.4267 177.627 16.28C177.96 16.12 178.234 15.9 178.447 15.62C178.674 15.3267 178.827 14.9733 178.907 14.56L180.847 15.22C180.66 15.82 180.367 16.3467 179.967 16.8C179.58 17.24 179.094 17.5867 178.507 17.84C177.92 18.08 177.247 18.2 176.487 18.2C175.5 18.2 174.627 17.9933 173.867 17.58C173.107 17.1667 172.514 16.5733 172.087 15.8C171.674 15.0133 171.467 14.08 171.467 13C171.467 11.92 171.674 10.9933 172.087 10.22C172.514 9.43333 173.1 8.83333 173.847 8.42C174.607 8.00667 175.467 7.8 176.427 7.8ZM186.057 5.06V15C186.057 15.4933 186.184 15.8533 186.437 16.08C186.704 16.3067 187.057 16.42 187.497 16.42C187.857 16.42 188.171 16.3667 188.437 16.26C188.704 16.14 188.951 15.98 189.177 15.78L189.657 17.34C189.351 17.6067 188.971 17.82 188.517 17.98C188.077 18.1267 187.584 18.2 187.037 18.2C186.464 18.2 185.937 18.1067 185.457 17.92C184.977 17.7333 184.604 17.4333 184.337 17.02C184.071 16.5933 183.931 16.04 183.917 15.36V5.66L186.057 5.06ZM189.497 8V9.68H181.997V8H189.497Z" fill="white"/>
</svg>
